<?xml version="1.0" encoding="utf-8"?>
<!-- Generator: Adobe Illustrator 19.1.0, SVG Export Plug-In . SVG Version: 6.00 Build 0)  -->
<svg version="1.1" id="Layer_1" xmlns="http://www.w3.org/2000/svg" xmlns:xlink="http://www.w3.org/1999/xlink" x="0px" y="0px"
	 viewBox="0 0 215.7 309.2" style="enable-background:new 0 0 215.7 309.2;" xml:space="preserve">
<style type="text/css">
	.st0{fill:#C6D265;}
</style>
<path class="st0" d="M160.2,304.5h-32.5v-31.7h-0.8c-14.1,24.3-34.9,36.4-62.4,36.4c-20.2,0-36-5.3-47.4-16
	C5.7,282.5,0,268.3,0,250.6c0-37.9,22.3-59.9,66.9-66.1l60.8-8.5c0-34.4-13.9-51.7-41.8-51.7c-24.4,0-46.5,8.3-66.1,24.9V116
	c19.9-12.7,42.9-19,68.9-19c47.6,0,71.5,25.2,71.5,75.6V304.5z M127.7,201.9l-48.9,6.7c-15,2.1-26.4,5.8-34,11.2
	c-7.7,5.3-11.5,14.8-11.5,28.4c0,9.9,3.5,18,10.6,24.3c7.1,6.3,16.5,9.4,28.2,9.4c16.1,0,29.4-5.6,39.9-16.9
	c10.5-11.3,15.7-25.6,15.7-42.9V201.9z"/>
<path class="st0" d="M215.7,32.9c-6.3-3.6-13.5-5.3-21.6-5.3c-22.7,0-34,14.3-34,43v31.3h47.5v27.7H160v175h-32.3V68.9
	c0-21.2,6.1-38,18.4-50.4C158.5,6.2,173.8,0,192.1,0c9.9,0,17.7,1.2,23.6,3.6V32.9z"/>
</svg>
